<svg width="512" height="512" viewBox="0 0 512 512" fill="none" xmlns="http://www.w3.org/2000/svg">
<style>
  @supports (color: color(display-p3 1 1 1)) {
    rect {
      fill: color(display-p3 0.05 0.249 0.32);
    }
    .primary-color {
      fill: color(display-p3 1 0.556 0.355);
    }
  }
</style>
<rect width="512" height="512" rx="64" fill="#004152"/>
<path fill="white" d="M97.4273 421V188.273H146.632V284.295H246.518V188.273H295.609V421H246.518V324.864H146.632V421H97.4273Z" />
<path fill="#FF8652" class="primary-color" d="M356.424 423.955C348.924 423.955 342.484 421.303 337.105 416C331.802 410.621 329.151 404.182 329.151 396.682C329.151 389.258 331.802 382.894 337.105 377.591C342.484 372.288 348.924 369.636 356.424 369.636C363.696 369.636 370.06 372.288 375.515 377.591C380.969 382.894 383.696 389.258 383.696 396.682C383.696 401.682 382.408 406.265 379.833 410.432C377.333 414.523 374.037 417.818 369.946 420.318C365.855 422.742 361.348 423.955 356.424 423.955Z" />
</svg>
