<svg width="18" height="20" viewBox="0 0 18 20" fill="none" xmlns="http://www.w3.org/2000/svg">
<path d="M6.22947 6C6.65742 6 7.04635 6.036 7.39992 6.11282C7.75166 6.19083 8.0522 6.31084 8.30519 6.47886C8.55513 6.64689 8.75203 6.86892 8.89042 7.15095C9.02758 7.43299 9.09768 7.78104 9.09768 8.18909C9.09768 8.63315 8.99405 9.0052 8.78861 9.30524C8.58256 9.60528 8.27837 9.84531 7.87298 10.0373C8.42528 10.1934 8.83372 10.4694 9.10561 10.8594C9.37871 11.2555 9.511 11.7296 9.511 12.2756C9.511 12.7257 9.43175 13.1097 9.26106 13.4338C9.09037 13.7638 8.85262 14.0339 8.55391 14.2439C8.2613 14.4527 7.91382 14.6039 7.53586 14.7042C7.164 14.8032 6.77263 14.8566 6.37151 14.8566H2V6.0042H6.22947V6ZM12.3268 13.2982C12.595 13.555 12.9809 13.684 13.4814 13.684C13.8411 13.684 14.152 13.5952 14.4141 13.4158C14.6726 13.2418 14.8286 13.0497 14.8896 12.8517H16.4673C16.2216 13.6198 15.8284 14.1719 15.309 14.5019C14.7908 14.838 14.1605 15 13.4314 15C12.9212 15 12.4658 14.922 12.0464 14.76C11.6361 14.5979 11.2904 14.3699 10.9978 14.0759C10.715 13.7818 10.4961 13.4278 10.3413 13.0137C10.1871 12.5997 10.1139 12.1436 10.1139 11.6516C10.1139 11.1697 10.1962 10.7274 10.3596 10.3134C10.5242 9.89332 10.7522 9.54527 11.0423 9.23923C11.3441 8.93319 11.6904 8.70216 12.1006 8.52274C12.5109 8.34331 12.9541 8.2629 13.454 8.2629C14.0087 8.2629 14.4842 8.36131 14.9048 8.57674C15.3133 8.78077 15.6485 9.06881 15.9168 9.41686C16.185 9.7685 16.374 10.173 16.4898 10.629C16.6056 11.0791 16.6422 11.5531 16.6178 12.0572H11.9299C11.9299 12.5613 12.1006 13.0365 12.3628 13.2964L12.314 13.3144L12.3268 13.2982ZM6.08438 13.3282C6.27763 13.3282 6.46234 13.3102 6.63669 13.2724C6.81348 13.2364 6.97076 13.1734 7.10182 13.0923C7.22984 13.0113 7.33957 12.8955 7.41882 12.7425C7.49807 12.5985 7.53464 12.4005 7.53464 12.1664C7.53464 11.7164 7.40053 11.3923 7.14449 11.1943C6.88236 11.0023 6.54098 10.9063 6.11425 10.9063H3.97513V13.3366H6.08438V13.3186V13.3282ZM14.3793 9.93772C14.1648 9.70669 13.8063 9.58248 13.3692 9.58248C13.0839 9.58248 12.848 9.62688 12.6584 9.7253C12.4743 9.81531 12.3231 9.93532 12.2073 10.0793C12.0915 10.2234 12.0141 10.3674 11.9683 10.5294C11.9226 10.6854 11.8952 10.8294 11.886 10.9555H14.789C14.7463 10.5054 14.5878 10.1754 14.3745 9.94133V9.94733L14.3793 9.93772ZM5.97465 9.56868C6.32457 9.56868 6.61474 9.48827 6.84335 9.32144C7.07134 9.15942 7.18107 8.88939 7.18107 8.51854C7.18107 8.31211 7.1384 8.14349 7.07134 8.01087C6.99209 7.87885 6.88846 7.77684 6.76654 7.70363C6.63852 7.62922 6.49221 7.57761 6.32762 7.54941C6.16302 7.5176 5.98624 7.505 5.81555 7.505H3.96904V9.56928H5.97465V9.56868ZM11.5209 6.59348H15.159V7.466H11.5209V6.58628V6.59228V6.59348Z" fill="#0057FF"/>
</svg>
