<svg width="16" height="20" viewBox="0 0 16 20" fill="none" xmlns="http://www.w3.org/2000/svg">
<path d="M5.04872 4C5.45838 4 5.83069 4.03447 6.16915 4.10799C6.50587 4.18267 6.79356 4.29756 7.03574 4.4584C7.275 4.61924 7.46349 4.83178 7.59595 5.10177C7.72725 5.37175 7.79436 5.70493 7.79436 6.09554C7.79436 6.52062 7.69516 6.87677 7.4985 7.16399C7.30126 7.45121 7.01006 7.68098 6.62199 7.8648C7.1507 8.01416 7.54168 8.2784 7.80195 8.65178C8.06338 9.03091 8.19001 9.48471 8.19001 10.0074C8.19001 10.4383 8.11415 10.8059 7.95076 11.1161C7.78736 11.432 7.55977 11.6905 7.27383 11.8916C6.99372 12.0915 6.66109 12.2363 6.29929 12.3322C5.94332 12.427 5.56867 12.4781 5.18469 12.4781H1V4.00402H5.04872V4ZM10.8855 10.9863C11.1422 11.2321 11.5116 11.3556 11.9907 11.3556C12.335 11.3556 12.6326 11.2706 12.8836 11.0989C13.131 10.9323 13.2804 10.7485 13.3387 10.5589H14.849C14.6138 11.2942 14.2374 11.8227 13.7402 12.1386C13.2442 12.4603 12.6408 12.6154 11.9429 12.6154C11.4544 12.6154 11.0185 12.5407 10.617 12.3856C10.2243 12.2305 9.89342 12.0122 9.61331 11.7308C9.34254 11.4493 9.13304 11.1104 8.98482 10.714C8.83718 10.3176 8.76715 9.88107 8.76715 9.41003C8.76715 8.94876 8.84593 8.5254 9.00233 8.12904C9.15989 7.72694 9.37814 7.39377 9.65591 7.1008C9.94477 6.80784 10.2762 6.58668 10.669 6.41493C11.0617 6.24317 11.4859 6.1662 11.9645 6.1662C12.4955 6.1662 12.9507 6.2604 13.3533 6.46663C13.7443 6.66193 14.0653 6.93766 14.322 7.27084C14.5788 7.60746 14.7597 7.99463 14.8706 8.4312C14.9815 8.86202 15.0165 9.31583 14.9931 9.79835H10.5056C10.5056 10.2809 10.669 10.7358 10.9199 10.9846L10.8732 11.0018L10.8855 10.9863ZM4.90984 11.015C5.09482 11.015 5.27164 10.9978 5.43854 10.9616C5.60777 10.9271 5.75833 10.8668 5.88379 10.7893C6.00634 10.7117 6.11138 10.6008 6.18724 10.4544C6.26311 10.3165 6.29812 10.1269 6.29812 9.9029C6.29812 9.47207 6.16974 9.16188 5.92464 8.97232C5.67371 8.7885 5.34692 8.69659 4.93843 8.69659H2.89073V11.0231H4.90984V11.0058V11.015ZM12.8503 7.76945C12.6449 7.54829 12.3018 7.42938 11.8834 7.42938C11.6102 7.42938 11.3844 7.47189 11.2029 7.5661C11.0267 7.65226 10.882 7.76715 10.7711 7.90501C10.6602 8.04288 10.5861 8.18074 10.5423 8.33584C10.4986 8.48519 10.4723 8.62306 10.4636 8.74369H13.2425C13.2016 8.31286 13.0499 7.99692 12.8456 7.77289V7.77864L12.8503 7.76945ZM4.8048 7.41617C5.13976 7.41617 5.41753 7.33919 5.63637 7.1795C5.85462 7.0244 5.95966 6.76591 5.95966 6.41091C5.95966 6.2133 5.91881 6.05188 5.85462 5.92493C5.77875 5.79856 5.67955 5.7009 5.56284 5.63082C5.44029 5.55959 5.30024 5.51019 5.14268 5.48319C4.98512 5.45275 4.81588 5.44068 4.65249 5.44068H2.88489V7.41674H4.8048V7.41617ZM10.114 4.56812H13.5967V5.40335H10.114V4.56122V4.56697V4.56812Z" fill="#0057FF"/>
</svg>
