<svg width="18" height="20" viewBox="0 0 18 20" fill="none" xmlns="http://www.w3.org/2000/svg">
<path d="M6.22947 5C6.65742 5 7.04635 5.036 7.39992 5.11282C7.75166 5.19083 8.0522 5.31084 8.30519 5.47886C8.55513 5.64689 8.75203 5.86892 8.89042 6.15095C9.02758 6.43299 9.09768 6.78104 9.09768 7.18909C9.09768 7.63315 8.99405 8.0052 8.78861 8.30524C8.58256 8.60528 8.27837 8.84531 7.87298 9.03734C8.42528 9.19336 8.83372 9.4694 9.10561 9.85945C9.37871 10.2555 9.511 10.7296 9.511 11.2756C9.511 11.7257 9.43175 12.1097 9.26106 12.4338C9.09037 12.7638 8.85262 13.0339 8.55391 13.2439C8.2613 13.4527 7.91382 13.6039 7.53586 13.7042C7.164 13.8032 6.77263 13.8566 6.37151 13.8566H2V5.0042H6.22947V5ZM12.3268 12.2982C12.595 12.555 12.9809 12.684 13.4814 12.684C13.8411 12.684 14.152 12.5952 14.4141 12.4158C14.6726 12.2418 14.8286 12.0497 14.8896 11.8517H16.4673C16.2216 12.6198 15.8284 13.1719 15.309 13.5019C14.7908 13.838 14.1605 14 13.4314 14C12.9212 14 12.4658 13.922 12.0464 13.76C11.6361 13.5979 11.2904 13.3699 10.9978 13.0759C10.715 12.7818 10.4961 12.4278 10.3413 12.0137C10.1871 11.5997 10.1139 11.1436 10.1139 10.6516C10.1139 10.1697 10.1962 9.72743 10.3596 9.31338C10.5242 8.89332 10.7522 8.54527 11.0423 8.23923C11.3441 7.93319 11.6904 7.70216 12.1006 7.52274C12.5109 7.34331 12.9541 7.2629 13.454 7.2629C14.0087 7.2629 14.4842 7.36131 14.9048 7.57674C15.3133 7.78077 15.6485 8.06881 15.9168 8.41686C16.185 8.7685 16.374 9.17296 16.4898 9.62902C16.6056 10.0791 16.6422 10.5531 16.6178 11.0572H11.9299C11.9299 11.5613 12.1006 12.0365 12.3628 12.2964L12.314 12.3144L12.3268 12.2982ZM6.08438 12.3282C6.27763 12.3282 6.46234 12.3102 6.63669 12.2724C6.81348 12.2364 6.97076 12.1734 7.10182 12.0923C7.22984 12.0113 7.33957 11.8955 7.41882 11.7425C7.49807 11.5985 7.53464 11.4005 7.53464 11.1664C7.53464 10.7164 7.40053 10.3923 7.14449 10.1943C6.88236 10.0023 6.54098 9.90625 6.11425 9.90625H3.97513V12.3366H6.08438V12.3186V12.3282ZM14.3793 8.93772C14.1648 8.70669 13.8063 8.58248 13.3692 8.58248C13.0839 8.58248 12.848 8.62688 12.6584 8.7253C12.4743 8.81531 12.3231 8.93532 12.2073 9.07934C12.0915 9.22336 12.0141 9.36738 11.9683 9.5294C11.9226 9.68542 11.8952 9.82944 11.886 9.95546H14.789C14.7463 9.5054 14.5878 9.17536 14.3745 8.94133V8.94733L14.3793 8.93772ZM5.97465 8.56868C6.32457 8.56868 6.61474 8.48827 6.84335 8.32144C7.07134 8.15942 7.18107 7.88939 7.18107 7.51854C7.18107 7.31211 7.1384 7.14349 7.07134 7.01087C6.99209 6.87885 6.88846 6.77684 6.76654 6.70363C6.63852 6.62922 6.49221 6.57761 6.32762 6.54941C6.16302 6.5176 5.98624 6.505 5.81555 6.505H3.96904V8.56928H5.97465V8.56868ZM11.5209 5.59348H15.159V6.466H11.5209V5.58628V5.59228V5.59348Z" fill="#0057FF"/>
</svg>
