<svg width="18" height="20" viewBox="0 0 18 20" fill="none" xmlns="http://www.w3.org/2000/svg">
<path fill="#fafafa" fill-rule="evenodd" clip-rule="evenodd" d="M8.63378 2.11044C8.85572 1.96319 9.14428 1.96319 9.36622 2.11044L15.7038 6.31504C15.8888 6.43777 16 6.64503 16 6.86704V11.1295C16 11.3515 15.8888 11.5587 15.7038 11.6815L9.36623 15.8861C9.14428 16.0333 8.85572 16.0333 8.63378 15.8861L2.29622 11.6815C2.11122 11.5587 2 11.3515 2 11.1295V6.86704C2 6.64503 2.11122 6.43777 2.29622 6.31504L8.63378 2.11044ZM3.32489 8.10158V9.88559L4.66015 8.98754L3.32489 8.10158ZM5.85519 9.78046L3.85503 11.1257L8.33756 14.0996V11.4275L5.85519 9.78046ZM9.66244 11.4275V14.0996L14.145 11.1257L12.1448 9.78046L9.66244 11.4275ZM13.3399 8.98754L14.6751 9.88559V8.10158L13.3399 8.98754ZM14.1393 6.86707L12.1498 8.18715L9.66244 6.51425V3.89691L14.1393 6.86707ZM8.33756 3.89691V6.51425L5.8502 8.18715L3.86066 6.86707L8.33756 3.89691ZM9 7.66537L7.04524 8.98007L9 10.2771L10.9548 8.98007L9 7.66537Z" />
</svg>
