<svg width="18" height="20" viewBox="0 0 18 20" fill="none" xmlns="http://www.w3.org/2000/svg">
<g clip-path="url(#clip0_9_118)">
<rect width="18" height="20" fill="white"/>
<rect y="1" width="18" height="18" rx="2" fill="#0C0D0E"/>
<circle cx="9" cy="10" r="7.875" fill="white"/>
<path d="M13.608 10.8003V9.19975L12.4125 10L13.608 10.8003ZM14.565 11.6958C14.5649 11.7166 14.5634 11.7374 14.5605 11.758L14.5568 11.779L14.5485 11.8188L14.541 11.842C14.5373 11.854 14.5335 11.8653 14.5283 11.8773L14.5178 11.8998C14.5128 11.9107 14.5076 11.9214 14.502 11.932L14.4878 11.9545C14.4706 11.9817 14.4505 12.0068 14.4278 12.0295L14.4083 12.0483C14.3996 12.0561 14.3905 12.0636 14.3813 12.0708L14.3595 12.0873L14.352 12.0933L9.2655 15.4848C9.18692 15.5373 9.09452 15.5653 9 15.5653C8.90548 15.5653 8.81308 15.5373 8.7345 15.4848L3.648 12.0925L3.6405 12.0865C3.62337 12.0746 3.60708 12.0616 3.59175 12.0475L3.57225 12.0288L3.54825 12.0033L3.5325 11.9823C3.51278 11.9567 3.49593 11.929 3.48225 11.8998L3.47175 11.8765C3.46705 11.8649 3.46279 11.8532 3.459 11.8413L3.4515 11.8188C3.4485 11.8053 3.4455 11.7918 3.444 11.7783L3.4395 11.7573C3.43663 11.7366 3.43512 11.7158 3.435 11.695V8.30425C3.435 8.28325 3.4365 8.263 3.4395 8.242L3.44325 8.22175L3.4515 8.18125L3.459 8.15875C3.47678 8.09859 3.5075 8.04305 3.549 7.996L3.57225 7.9705L3.59175 7.95175C3.60711 7.93767 3.6234 7.92465 3.6405 7.91275L3.648 7.90675L8.7345 4.516C8.81312 4.46357 8.9055 4.43559 9 4.43559C9.0945 4.43559 9.18689 4.46357 9.2655 4.516L14.352 7.90675L14.3595 7.91275L14.382 7.92925L14.4083 7.95175C14.4158 7.95775 14.421 7.96375 14.4278 7.9705C14.4506 7.99306 14.4708 8.01823 14.4878 8.0455L14.502 8.068C14.5077 8.07855 14.5129 8.08931 14.5178 8.10025L14.5283 8.12275C14.5335 8.13475 14.5373 8.14675 14.541 8.158L14.5485 8.18125C14.5515 8.19475 14.5545 8.20825 14.556 8.22175L14.5605 8.242C14.5634 8.26263 14.5649 8.28343 14.565 8.30425V11.6958ZM9 1C4.02975 1 0 5.029 0 10C0 14.9703 4.02975 19 9 19C13.971 19 18 14.971 18 10C18 5.02975 13.971 1 9 1ZM9 8.869L7.30875 10L9 11.1325L10.6913 10L9 8.869ZM9.4785 11.962V14.1933L13.2255 11.6958L11.5515 10.576L9.4785 11.962ZM4.7745 11.695L8.5215 14.1925V11.962L6.4485 10.5753L4.7745 11.695ZM13.2255 8.305L9.4785 5.8075V8.038L11.5515 9.4255L13.2255 8.305ZM8.5215 8.038V5.8075L4.7745 8.305L6.4485 9.42475L8.5215 8.038ZM4.392 9.19975V10.8003L5.5875 10L4.392 9.19975Z" fill="black"/>
</g>
<defs>
<clipPath id="clip0_9_118">
<rect width="18" height="20" fill="white"/>
</clipPath>
</defs>
</svg>
