<svg width="16" height="20" viewBox="0 0 16 20" fill="none" xmlns="http://www.w3.org/2000/svg">
<path fill="black" fill-rule="evenodd" clip-rule="evenodd" d="M7.63378 1.11044C7.85572 0.963188 8.14428 0.963188 8.36622 1.11044L14.7038 5.31504C14.8888 5.43777 15 5.64503 15 5.86704V10.1295C15 10.3515 14.8888 10.5587 14.7038 10.6815L8.36623 14.8861C8.14428 15.0333 7.85572 15.0333 7.63378 14.8861L1.29622 10.6815C1.11122 10.5587 1 10.3515 1 10.1295V5.86704C1 5.64503 1.11122 5.43777 1.29622 5.31504L7.63378 1.11044ZM2.32489 7.10158V8.88559L3.66015 7.98754L2.32489 7.10158ZM4.85519 8.78046L2.85503 10.1257L7.33756 13.0996V10.4275L4.85519 8.78046ZM8.66244 10.4275V13.0996L13.145 10.1257L11.1448 8.78046L8.66244 10.4275ZM12.3399 7.98754L13.6751 8.88559V7.10158L12.3399 7.98754ZM13.1393 5.86707L11.1498 7.18715L8.66244 5.51425V2.89691L13.1393 5.86707ZM7.33756 2.89691V5.51425L4.8502 7.18715L2.86066 5.86707L7.33756 2.89691ZM8 6.66537L6.04524 7.98007L8 9.27708L9.95476 7.98007L8 6.66537Z" />
</svg>
