<svg width="18" height="22" viewBox="0 0 18 22" fill="none" xmlns="http://www.w3.org/2000/svg">
<circle cx="9" cy="9" r="7.875" fill="white"/>
<path d="M13.608 9.80025V8.19975L12.4125 9L13.608 9.80025ZM14.565 10.6958C14.5649 10.7166 14.5634 10.7374 14.5605 10.758L14.5568 10.779L14.5485 10.8188L14.541 10.842C14.5373 10.854 14.5335 10.8653 14.5283 10.8773L14.5178 10.8998C14.5128 10.9107 14.5076 10.9214 14.502 10.932L14.4878 10.9545C14.4706 10.9817 14.4505 11.0068 14.4278 11.0295L14.4083 11.0483C14.3996 11.0561 14.3905 11.0636 14.3813 11.0708L14.3595 11.0873L14.352 11.0933L9.2655 14.4848C9.18692 14.5373 9.09452 14.5653 9 14.5653C8.90548 14.5653 8.81308 14.5373 8.7345 14.4848L3.648 11.0925L3.6405 11.0865C3.62337 11.0746 3.60708 11.0616 3.59175 11.0475L3.57225 11.0288L3.54825 11.0033L3.5325 10.9823C3.51278 10.9567 3.49593 10.929 3.48225 10.8998L3.47175 10.8765C3.46705 10.8649 3.46279 10.8532 3.459 10.8413L3.4515 10.8188C3.4485 10.8053 3.4455 10.7918 3.444 10.7783L3.4395 10.7573C3.43663 10.7366 3.43512 10.7158 3.435 10.695V7.30425C3.435 7.28325 3.4365 7.263 3.4395 7.242L3.44325 7.22175L3.4515 7.18125L3.459 7.15875C3.47678 7.09859 3.5075 7.04305 3.549 6.996L3.57225 6.9705L3.59175 6.95175C3.60711 6.93767 3.6234 6.92465 3.6405 6.91275L3.648 6.90675L8.7345 3.516C8.81312 3.46357 8.9055 3.43559 9 3.43559C9.0945 3.43559 9.18689 3.46357 9.2655 3.516L14.352 6.90675L14.3595 6.91275L14.382 6.92925L14.4083 6.95175C14.4158 6.95775 14.421 6.96375 14.4278 6.9705C14.4506 6.99306 14.4708 7.01823 14.4878 7.0455L14.502 7.068C14.5077 7.07855 14.5129 7.08931 14.5178 7.10025L14.5283 7.12275C14.5335 7.13475 14.5373 7.14675 14.541 7.158L14.5485 7.18125C14.5515 7.19475 14.5545 7.20825 14.556 7.22175L14.5605 7.242C14.5634 7.26263 14.5649 7.28343 14.565 7.30425V10.6958ZM9 0C4.02975 0 0 4.029 0 9C0 13.9703 4.02975 18 9 18C13.971 18 18 13.971 18 9C18 4.02975 13.971 0 9 0ZM9 7.869L7.30875 9L9 10.1325L10.6913 9L9 7.869ZM9.4785 10.962V13.1933L13.2255 10.6958L11.5515 9.576L9.4785 10.962ZM4.7745 10.695L8.5215 13.1925V10.962L6.4485 9.57525L4.7745 10.695ZM13.2255 7.305L9.4785 4.8075V7.038L11.5515 8.4255L13.2255 7.305ZM8.5215 7.038V4.8075L4.7745 7.305L6.4485 8.42475L8.5215 7.038ZM4.392 8.19975V9.80025L5.5875 9L4.392 8.19975Z" fill="black"/>
</svg>
