<svg width="64" height="64" viewBox="0 0 64 64" fill="none" xmlns="http://www.w3.org/2000/svg">
<circle cx="32" cy="32" r="28" fill="white"/>
<path d="M48.384 34.8453V29.1547L44.1333 32L48.384 34.8453ZM51.7867 38.0293C51.7862 38.1034 51.7809 38.1773 51.7707 38.2507L51.7573 38.3253L51.728 38.4667L51.7013 38.5493C51.688 38.592 51.6747 38.632 51.656 38.6747L51.6187 38.7547C51.6012 38.7935 51.5825 38.8317 51.5627 38.8693L51.512 38.9493C51.4511 39.046 51.3796 39.1354 51.2987 39.216L51.2293 39.2827C51.1984 39.3106 51.1664 39.3373 51.1333 39.3627L51.056 39.4213L51.0293 39.4427L32.944 51.5013C32.6646 51.6881 32.3361 51.7878 32 51.7878C31.6639 51.7878 31.3354 51.6881 31.056 51.5013L12.9707 39.44L12.944 39.4187C12.8831 39.3765 12.8252 39.3302 12.7707 39.28L12.7013 39.2133L12.616 39.1227L12.56 39.048C12.4899 38.9571 12.43 38.8587 12.3813 38.7547L12.344 38.672C12.3273 38.6308 12.3122 38.589 12.2987 38.5467L12.272 38.4667C12.2613 38.4187 12.2507 38.3707 12.2453 38.3227L12.2293 38.248C12.2191 38.1747 12.2138 38.1007 12.2133 38.0267V25.9707C12.2133 25.896 12.2187 25.824 12.2293 25.7493L12.2427 25.6773L12.272 25.5333L12.2987 25.4533C12.3619 25.2394 12.4711 25.0419 12.6187 24.8747L12.7013 24.784L12.7707 24.7173C12.8253 24.6673 12.8832 24.621 12.944 24.5787L12.9707 24.5573L31.056 12.5013C31.3355 12.3149 31.664 12.2154 32 12.2154C32.336 12.2154 32.6645 12.3149 32.944 12.5013L51.0293 24.5573L51.056 24.5787L51.136 24.6373L51.2293 24.7173C51.256 24.7387 51.2747 24.76 51.2987 24.784C51.38 24.8642 51.4516 24.9537 51.512 25.0507L51.5627 25.1307C51.5828 25.1682 51.6015 25.2064 51.6187 25.2453L51.656 25.3253C51.6747 25.368 51.688 25.4107 51.7013 25.4507L51.728 25.5333C51.7387 25.5813 51.7493 25.6293 51.7547 25.6773L51.7707 25.7493C51.781 25.8227 51.7863 25.8966 51.7867 25.9707V38.0293ZM32 0C14.328 0 0 14.3253 0 32C0 49.672 14.328 64 32 64C49.6747 64 64 49.6747 64 32C64 14.328 49.6747 0 32 0ZM32 27.9787L25.9867 32L32 36.0267L38.0133 32L32 27.9787ZM33.7013 38.976V46.9093L47.024 38.0293L41.072 34.048L33.7013 38.976ZM16.976 38.0267L30.2987 46.9067V38.976L22.928 34.0453L16.976 38.0267ZM47.024 25.9733L33.7013 17.0933V25.024L41.072 29.9573L47.024 25.9733ZM30.2987 25.024V17.0933L16.976 25.9733L22.928 29.9547L30.2987 25.024ZM15.616 29.1547V34.8453L19.8667 32L15.616 29.1547Z" fill="black"/>
</svg>
