<svg width="18" height="20" viewBox="0 0 18 20" fill="none" xmlns="http://www.w3.org/2000/svg">
<path fill-rule="evenodd" clip-rule="evenodd" d="M8.63378 3.11044C8.85572 2.96319 9.14428 2.96319 9.36622 3.11044L15.7038 7.31504C15.8888 7.43777 16 7.64503 16 7.86704V12.1295C16 12.3515 15.8888 12.5587 15.7038 12.6815L9.36623 16.8861C9.14428 17.0333 8.85572 17.0333 8.63378 16.8861L2.29622 12.6815C2.11122 12.5587 2 12.3515 2 12.1295V7.86704C2 7.64503 2.11122 7.43777 2.29622 7.31504L8.63378 3.11044ZM3.32489 9.10158V10.8856L4.66015 9.98754L3.32489 9.10158ZM5.85519 10.7805L3.85503 12.1257L8.33756 15.0996V12.4275L5.85519 10.7805ZM9.66244 12.4275V15.0996L14.145 12.1257L12.1448 10.7805L9.66244 12.4275ZM13.3399 9.98754L14.6751 10.8856V9.10158L13.3399 9.98754ZM14.1393 7.86707L12.1498 9.18715L9.66244 7.51425V4.89691L14.1393 7.86707ZM8.33756 4.89691V7.51425L5.8502 9.18715L3.86066 7.86707L8.33756 4.89691ZM9 8.66537L7.04524 9.98007L9 11.2771L10.9548 9.98007L9 8.66537Z" fill="white"/>
</svg>
