<svg width="18" height="20" viewBox="0 0 18 20" fill="none" xmlns="http://www.w3.org/2000/svg">
<circle cx="9" cy="10.5" r="8.5" fill="white"/>
<path d="M9 1C4.0275 1 0 5.02975 0 10C0 13.9772 2.5785 17.35 6.15375 18.5387C6.60375 18.6235 6.76875 18.3452 6.76875 18.106C6.76875 17.8922 6.76125 17.326 6.7575 16.576C4.254 17.119 3.726 15.3685 3.726 15.3685C3.3165 14.3297 2.72475 14.0522 2.72475 14.0522C1.9095 13.4942 2.78775 13.5055 2.78775 13.5055C3.6915 13.5685 4.16625 14.4325 4.16625 14.4325C4.96875 15.8087 6.273 15.4112 6.7875 15.181C6.8685 14.599 7.10025 14.2022 7.3575 13.9772C5.35875 13.7522 3.258 12.9783 3.258 9.52975C3.258 8.54725 3.60675 7.74475 4.18425 7.11475C4.083 6.8875 3.77925 5.9725 4.263 4.73275C4.263 4.73275 5.01675 4.49125 6.738 5.65525C7.458 5.455 8.223 5.356 8.988 5.3515C9.753 5.356 10.518 5.455 11.238 5.65525C12.948 4.49125 13.7017 4.73275 13.7017 4.73275C14.1855 5.9725 13.8817 6.8875 13.7917 7.11475C14.3655 7.74475 14.7142 8.54725 14.7142 9.52975C14.7142 12.9873 12.6105 13.7485 10.608 13.9697C10.923 14.2397 11.2155 14.7917 11.2155 15.6347C11.2155 16.8392 11.2043 17.8067 11.2043 18.0992C11.2043 18.3355 11.3617 18.6167 11.823 18.5267C15.4238 17.3462 18 13.9713 18 10C18 5.02975 13.9702 1 9 1" fill="#181717"/>
</svg>
