<svg width="18" height="20" viewBox="0 0 18 20" fill="none" xmlns="http://www.w3.org/2000/svg">
<circle cx="9.00001" cy="10.4445" r="7.55556" fill="white"/>
<path d="M9 2C4.58 2 1 5.582 1 10C1 13.5353 3.292 16.5333 6.47 17.59C6.87 17.6653 7.01667 17.418 7.01667 17.2053C7.01667 17.0153 7.01 16.512 7.00667 15.8453C4.78133 16.328 4.312 14.772 4.312 14.772C3.948 13.8487 3.422 13.602 3.422 13.602C2.69733 13.106 3.478 13.116 3.478 13.116C4.28133 13.172 4.70333 13.94 4.70333 13.94C5.41667 15.1633 6.576 14.81 7.03333 14.6053C7.10533 14.088 7.31133 13.7353 7.54 13.5353C5.76333 13.3353 3.896 12.6473 3.896 9.582C3.896 8.70867 4.206 7.99533 4.71933 7.43533C4.62933 7.23333 4.35933 6.42 4.78933 5.318C4.78933 5.318 5.45933 5.10333 6.98933 6.138C7.62933 5.96 8.30933 5.872 8.98933 5.868C9.66933 5.872 10.3493 5.96 10.9893 6.138C12.5093 5.10333 13.1793 5.318 13.1793 5.318C13.6093 6.42 13.3393 7.23333 13.2593 7.43533C13.7693 7.99533 14.0793 8.70867 14.0793 9.582C14.0793 12.6553 12.2093 13.332 10.4293 13.5287C10.7093 13.7687 10.9693 14.2593 10.9693 15.0087C10.9693 16.0793 10.9593 16.9393 10.9593 17.1993C10.9593 17.4093 11.0993 17.6593 11.5093 17.5793C14.71 16.53 17 13.53 17 10C17 5.582 13.418 2 9 2" fill="#181717"/>
</svg>
