<svg width="18" height="20" viewBox="0 0 18 20" fill="none" xmlns="http://www.w3.org/2000/svg">
<circle cx="9.00001" cy="9.44447" r="7.55556" fill="#181717"/>
<path d="M9 1C4.58 1 1 4.582 1 9C1 12.5353 3.292 15.5333 6.47 16.59C6.87 16.6653 7.01667 16.418 7.01667 16.2053C7.01667 16.0153 7.01 15.512 7.00667 14.8453C4.78133 15.328 4.312 13.772 4.312 13.772C3.948 12.8487 3.422 12.602 3.422 12.602C2.69733 12.106 3.478 12.116 3.478 12.116C4.28133 12.172 4.70333 12.94 4.70333 12.94C5.41667 14.1633 6.576 13.81 7.03333 13.6053C7.10533 13.088 7.31133 12.7353 7.54 12.5353C5.76333 12.3353 3.896 11.6473 3.896 8.582C3.896 7.70867 4.206 6.99533 4.71933 6.43533C4.62933 6.23333 4.35933 5.42 4.78933 4.318C4.78933 4.318 5.45933 4.10333 6.98933 5.138C7.62933 4.96 8.30933 4.872 8.98933 4.868C9.66933 4.872 10.3493 4.96 10.9893 5.138C12.5093 4.10333 13.1793 4.318 13.1793 4.318C13.6093 5.42 13.3393 6.23333 13.2593 6.43533C13.7693 6.99533 14.0793 7.70867 14.0793 8.582C14.0793 11.6553 12.2093 12.332 10.4293 12.5287C10.7093 12.7687 10.9693 13.2593 10.9693 14.0087C10.9693 15.0793 10.9593 15.9393 10.9593 16.1993C10.9593 16.4093 11.0993 16.6593 11.5093 16.5793C14.71 15.53 17 12.53 17 9C17 4.582 13.418 1 9 1" fill="white"/>
</svg>
