<svg width="18" height="20" viewBox="0 0 18 20" fill="none" xmlns="http://www.w3.org/2000/svg">
<g clip-path="url(#clip0_9_119)">
<rect width="18" height="20" fill="white"/>
<mask id="mask0_9_119" style="mask-type:alpha" maskUnits="userSpaceOnUse" x="0" y="1" width="18" height="18">
<rect y="1" width="18" height="18" rx="2" fill="#0C0D0E"/>
</mask>
<g mask="url(#mask0_9_119)">
<rect y="1" width="18" height="18" rx="2" fill="#0C0D0E"/>
<circle cx="9.00005" cy="9.77776" r="6.22222" fill="white"/>
<path d="M9 2C5.1325 2 2 5.13425 2 9C2 12.0934 4.0055 14.7167 6.78625 15.6412C7.13625 15.7072 7.26458 15.4908 7.26458 15.3047C7.26458 15.1384 7.25875 14.698 7.25583 14.1147C5.30867 14.537 4.898 13.1755 4.898 13.1755C4.5795 12.3676 4.11925 12.1518 4.11925 12.1518C3.48517 11.7178 4.16825 11.7265 4.16825 11.7265C4.87117 11.7755 5.24042 12.4475 5.24042 12.4475C5.86458 13.5179 6.879 13.2088 7.27917 13.0297C7.34217 12.577 7.52242 12.2684 7.7225 12.0934C6.16792 11.9184 4.534 11.3164 4.534 8.63425C4.534 7.87008 4.80525 7.24592 5.25442 6.75592C5.17567 6.57917 4.93942 5.8675 5.31567 4.90325C5.31567 4.90325 5.90192 4.71542 7.24067 5.62075C7.80067 5.465 8.39567 5.388 8.99067 5.3845C9.58567 5.388 10.1807 5.465 10.7407 5.62075C12.0707 4.71542 12.6569 4.90325 12.6569 4.90325C13.0332 5.8675 12.7969 6.57917 12.7269 6.75592C13.1732 7.24592 13.4444 7.87008 13.4444 8.63425C13.4444 11.3234 11.8082 11.9155 10.2507 12.0876C10.4957 12.2976 10.7232 12.7269 10.7232 13.3826C10.7232 14.3194 10.7144 15.0719 10.7144 15.2994C10.7144 15.4832 10.8369 15.7019 11.1957 15.6319C13.9962 14.7138 16 12.0888 16 9C16 5.13425 12.8657 2 9 2" fill="#181717"/>
</g>
</g>
<defs>
<clipPath id="clip0_9_119">
<rect width="18" height="20" fill="white"/>
</clipPath>
</defs>
</svg>
