<svg height="400" viewBox="0 0 850 400" width="850" xmlns="http://www.w3.org/2000/svg"><g fill-rule="evenodd"><path d="m6 0c-3.31368 0-6 2.68631-6 6v388c0 3.31369 2.68632 6 6 6h838c3.31366 0 6-2.68631 6-6v-388c0-3.31369-2.68634-6-6-6z" fill="#19282f"/><path d="m285.984375 349.796875c4.21875 0 7.59375-3.375 7.59375-7.59375 0-4.265625-3.375-7.59375-7.59375-7.59375-4.265625 0-7.59375 3.328125-7.59375 7.59375 0 4.21875 3.328125 7.59375 7.59375 7.59375z" fill="#f7821a"/><path d="m248.34375 350.03125c15.1875 0 24.890625-9.75 24.890625-26.15625v-.09375c0-16.265625-9.890625-26.0625-24.9375-26.0625-15 0-24.84375 9.890625-24.84375 26.0625v.09375c0 16.359375 9.609375 26.15625 24.890625 26.15625zm.046875-10.734375c-6.75 0-11.015625-5.578125-11.015625-15.421875v-.09375c0-9.703125 4.3125-15.328125 10.921875-15.328125 6.65625 0 11.015625 5.625 11.015625 15.328125v.09375c0 9.796875-4.265625 15.421875-10.921875 15.421875zm-46.03125 9.703125h13.6875v-67.640625h-13.6875zm-23.25 0h13.6875v-67.640625h-13.6875zm-30.75 1.03125c14.34375 0 21.28125-8.484375 22.828125-15.890625l.140625-.515625h-12.5625l-.09375.28125c-.984375 2.8125-4.40625 5.90625-10.03125 5.90625-6.984375 0-11.34375-4.6875-11.484375-12.703125h34.59375v-4.21875c0-15.1875-9.234375-25.171875-23.953125-25.171875s-24.140625 10.21875-24.140625 26.203125v.046875c0 16.078125 9.328125 26.0625 24.703125 26.0625zm-.328125-42.09375c5.671875 0 9.75 3.609375 10.59375 10.546875h-21.328125c.890625-6.796875 5.109375-10.546875 10.734375-10.546875zm-91.40625 41.0625h14.15625v-28.5h30.46875v28.5h14.15625v-67.640625h-14.15625v27.46875h-30.46875v-27.46875h-14.15625z" fill="#fff"/></g></svg>