<svg width="850" height="400" viewBox="0 0 850 400" fill="none" xmlns="http://www.w3.org/2000/svg">
<style>
  @supports (color: color(display-p3 1 1 1)) {
    rect {
      fill: color(display-p3 0.05 0.249 0.32);
    }
    .primary-color {
      fill: color(display-p3 1 0.556 0.355);
    }
  }
</style>
<rect width="850" height="400" rx="8" fill="#004152"/>
<path fill="white" d="M56.5511 279.95V267.273H116.281V279.95H94.0156V340H78.8168V279.95H56.5511ZM138.732 308.466V340H123.604V267.273H138.306V295.078H138.945C140.176 291.858 142.164 289.337 144.911 287.514C147.657 285.668 151.101 284.744 155.244 284.744C159.032 284.744 162.335 285.573 165.152 287.23C167.993 288.864 170.195 291.219 171.757 294.297C173.343 297.351 174.125 301.009 174.101 305.27V340H158.973V307.969C158.997 304.607 158.145 301.991 156.416 300.121C154.712 298.25 152.321 297.315 149.243 297.315C147.183 297.315 145.36 297.753 143.774 298.629C142.212 299.505 140.981 300.784 140.081 302.464C139.205 304.122 138.755 306.122 138.732 308.466ZM199.33 341.03C195.85 341.03 192.749 340.426 190.026 339.219C187.304 337.988 185.149 336.177 183.563 333.786C182.001 331.371 181.219 328.364 181.219 324.766C181.219 321.735 181.776 319.19 182.888 317.131C184.001 315.071 185.516 313.414 187.434 312.159C189.351 310.904 191.529 309.957 193.968 309.318C196.43 308.679 199.011 308.229 201.709 307.969C204.882 307.637 207.439 307.33 209.38 307.045C211.321 306.738 212.73 306.288 213.606 305.696C214.482 305.104 214.92 304.228 214.92 303.068V302.855C214.92 300.606 214.209 298.866 212.789 297.635C211.392 296.404 209.404 295.788 206.823 295.788C204.1 295.788 201.934 296.392 200.324 297.599C198.715 298.783 197.649 300.275 197.128 302.074L183.137 300.938C183.847 297.623 185.244 294.759 187.327 292.344C189.411 289.905 192.098 288.035 195.388 286.733C198.703 285.407 202.538 284.744 206.894 284.744C209.924 284.744 212.824 285.099 215.594 285.81C218.388 286.52 220.862 287.621 223.016 289.112C225.194 290.604 226.911 292.521 228.165 294.865C229.42 297.185 230.047 299.967 230.047 303.21V340H215.701V332.436H215.275C214.399 334.141 213.227 335.644 211.759 336.946C210.291 338.224 208.528 339.231 206.468 339.964C204.408 340.675 202.029 341.03 199.33 341.03ZM203.663 330.589C205.888 330.589 207.853 330.152 209.557 329.276C211.262 328.376 212.6 327.169 213.57 325.653C214.541 324.138 215.026 322.422 215.026 320.504V314.716C214.553 315.024 213.902 315.308 213.073 315.568C212.268 315.805 211.357 316.03 210.339 316.243C209.321 316.432 208.303 316.61 207.285 316.776C206.267 316.918 205.343 317.048 204.515 317.166C202.739 317.427 201.189 317.841 199.863 318.409C198.537 318.977 197.507 319.747 196.773 320.717C196.039 321.664 195.672 322.848 195.672 324.268C195.672 326.328 196.418 327.902 197.91 328.991C199.425 330.057 201.342 330.589 203.663 330.589ZM254.682 308.466V340H239.554V285.455H253.972V295.078H254.611C255.818 291.906 257.842 289.396 260.683 287.55C263.524 285.679 266.969 284.744 271.017 284.744C274.805 284.744 278.107 285.573 280.925 287.23C283.742 288.887 285.932 291.255 287.494 294.332C289.057 297.386 289.838 301.032 289.838 305.27V340H274.71V307.969C274.734 304.631 273.882 302.027 272.153 300.156C270.425 298.262 268.046 297.315 265.016 297.315C262.98 297.315 261.18 297.753 259.618 298.629C258.079 299.505 256.872 300.784 255.996 302.464C255.143 304.122 254.705 306.122 254.682 308.466ZM313.238 324.304L313.274 306.158H315.476L332.947 285.455H350.312L326.839 312.869H323.253L313.238 324.304ZM299.531 340V267.273H314.659V340H299.531ZM333.622 340L317.571 316.243L327.656 305.554L351.342 340H333.622ZM400.888 301.009L387.038 301.861C386.801 300.677 386.292 299.612 385.511 298.665C384.73 297.694 383.7 296.925 382.422 296.357C381.167 295.765 379.664 295.469 377.912 295.469C375.568 295.469 373.591 295.966 371.981 296.96C370.372 297.931 369.567 299.233 369.567 300.866C369.567 302.169 370.087 303.269 371.129 304.169C372.171 305.069 373.958 305.791 376.491 306.335L386.364 308.324C391.667 309.413 395.62 311.165 398.224 313.58C400.828 315.994 402.131 319.167 402.131 323.097C402.131 326.671 401.077 329.808 398.97 332.507C396.887 335.206 394.022 337.313 390.376 338.828C386.754 340.32 382.576 341.065 377.841 341.065C370.62 341.065 364.867 339.562 360.582 336.555C356.321 333.525 353.823 329.406 353.089 324.197L367.969 323.416C368.418 325.618 369.507 327.299 371.236 328.459C372.964 329.595 375.177 330.163 377.876 330.163C380.528 330.163 382.658 329.654 384.268 328.636C385.902 327.595 386.73 326.257 386.754 324.624C386.73 323.25 386.15 322.126 385.014 321.25C383.878 320.35 382.126 319.664 379.758 319.19L370.312 317.308C364.986 316.243 361.02 314.396 358.416 311.768C355.836 309.141 354.545 305.791 354.545 301.719C354.545 298.215 355.492 295.196 357.386 292.663C359.304 290.13 361.991 288.177 365.447 286.804C368.927 285.431 372.999 284.744 377.663 284.744C384.552 284.744 389.974 286.2 393.927 289.112C397.905 292.024 400.225 295.99 400.888 301.009Z" />
<path fill="#FF8652" class="primary-color" d="M418.269 340.923C415.925 340.923 413.913 340.095 412.232 338.438C410.575 336.757 409.746 334.744 409.746 332.401C409.746 330.08 410.575 328.092 412.232 326.435C413.913 324.777 415.925 323.949 418.269 323.949C420.542 323.949 422.53 324.777 424.235 326.435C425.939 328.092 426.792 330.08 426.792 332.401C426.792 333.963 426.389 335.395 425.584 336.697C424.803 337.976 423.773 339.006 422.495 339.787C421.216 340.545 419.808 340.923 418.269 340.923Z" />
</svg>
