<svg width="850" height="400" viewBox="0 0 850 400" fill="none" xmlns="http://www.w3.org/2000/svg">
<rect width="850" height="400" rx="6" fill="#223E4B"/>
<path d="M59.625 340H73.7812V311.5H104.25V340H118.406V272.359H104.25V299.828H73.7812V272.359H59.625V340ZM150.399 341.031C164.743 341.031 171.681 332.547 173.228 325.141L173.368 324.625H160.806L160.712 324.906C159.728 327.719 156.306 330.812 150.681 330.812C143.696 330.812 139.337 326.125 139.196 318.109H173.79V313.891C173.79 298.703 164.556 288.719 149.837 288.719C135.118 288.719 125.696 298.938 125.696 314.922V314.969C125.696 331.047 135.024 341.031 150.399 341.031ZM150.071 298.938C155.743 298.938 159.821 302.547 160.665 309.484H139.337C140.228 302.688 144.446 298.938 150.071 298.938ZM180.236 340H193.924V272.359H180.236V340ZM202.526 340H216.214V272.359H202.526V340ZM247.551 341.031C262.738 341.031 272.441 331.281 272.441 314.875V314.781C272.441 298.516 262.551 288.719 247.504 288.719C232.504 288.719 222.66 298.609 222.66 314.781V314.875C222.66 331.234 232.269 341.031 247.551 341.031ZM247.598 330.297C240.848 330.297 236.582 324.719 236.582 314.875V314.781C236.582 305.078 240.894 299.453 247.504 299.453C254.16 299.453 258.519 305.078 258.519 314.781V314.875C258.519 324.672 254.254 330.297 247.598 330.297Z" fill="white"/>
<path d="M285.684 340.797C289.903 340.797 293.278 337.422 293.278 333.203C293.278 328.938 289.903 325.609 285.684 325.609C281.419 325.609 278.091 328.938 278.091 333.203C278.091 337.422 281.419 340.797 285.684 340.797Z" fill="#EC6F3D"/>
</svg>
