<svg width="18" height="20" viewBox="0 0 18 20" fill="none" xmlns="http://www.w3.org/2000/svg">
<rect x="2" y="3" width="14" height="14" fill="white"/>
<path d="M14.6328 15.6326H12.2621V11.92C12.2621 11.0347 12.2463 9.89503 11.0291 9.89503C9.79431 9.89503 9.60539 10.8596 9.60539 11.8556V15.6324H7.23468V7.99773H9.51056V9.04108H9.54242C9.77018 8.65166 10.0993 8.3313 10.4947 8.11412C10.8902 7.89695 11.3371 7.79109 11.7879 7.80783C14.1907 7.80783 14.6338 9.38829 14.6338 11.4444L14.6328 15.6326ZM4.55975 6.95413C4.28765 6.95418 4.02165 6.87354 3.79538 6.72241C3.56911 6.57128 3.39275 6.35645 3.28858 6.10508C3.18441 5.85372 3.15711 5.5771 3.21014 5.31023C3.26318 5.04335 3.39417 4.79819 3.58653 4.60575C3.7789 4.41332 4.02401 4.28225 4.29087 4.22911C4.55773 4.17598 4.83435 4.20318 5.08575 4.30726C5.33715 4.41134 5.55205 4.58764 5.70326 4.81385C5.85447 5.04006 5.9352 5.30604 5.93525 5.57813C5.93529 5.7588 5.89973 5.9377 5.83062 6.10463C5.76151 6.27155 5.66021 6.42323 5.53249 6.551C5.40476 6.67878 5.2531 6.78014 5.0862 6.84931C4.9193 6.91848 4.74042 6.95409 4.55975 6.95413M5.7451 15.6326H3.37193V7.99773H5.7451V15.6326ZM15.8147 2.00109H2.18066C1.87121 1.9976 1.57301 2.11711 1.35163 2.33335C1.13024 2.5496 1.00378 2.84489 1 3.15434V16.8449C1.00365 17.1545 1.13004 17.45 1.35142 17.6665C1.57279 17.8829 1.87105 18.0027 2.18066 17.9994H15.8147C16.1249 18.0033 16.424 17.8839 16.6462 17.6674C16.8685 17.4509 16.9957 17.1551 17 16.8449V3.15335C16.9956 2.84329 16.8683 2.54766 16.646 2.33142C16.4237 2.11518 16.1247 1.99601 15.8147 2.0001" fill="#0A66C2"/>
</svg>
