<svg width="16" height="20" viewBox="0 0 16 20" fill="none" xmlns="http://www.w3.org/2000/svg">
<rect x="1" y="1" width="14" height="14" fill="white"/>
<path d="M13.6328 13.6326H11.2621V9.92C11.2621 9.0347 11.2463 7.89503 10.0291 7.89503C8.79431 7.89503 8.60539 8.85961 8.60539 9.85555V13.6324H6.23468V5.99773H8.51056V7.04108H8.54242C8.77018 6.65166 9.0993 6.3313 9.49473 6.11412C9.89016 5.89695 10.3371 5.79109 10.7879 5.80783C13.1907 5.80783 13.6338 7.38829 13.6338 9.44438L13.6328 13.6326ZM3.55975 4.95413C3.28765 4.95418 3.02165 4.87354 2.79538 4.72241C2.56911 4.57128 2.39275 4.35645 2.28858 4.10508C2.18441 3.85372 2.15711 3.5771 2.21014 3.31023C2.26318 3.04335 2.39417 2.79819 2.58653 2.60575C2.7789 2.41332 3.02401 2.28225 3.29087 2.22911C3.55773 2.17598 3.83435 2.20318 4.08575 2.30726C4.33715 2.41134 4.55205 2.58764 4.70326 2.81385C4.85447 3.04006 4.9352 3.30604 4.93525 3.57813C4.93529 3.7588 4.89973 3.9377 4.83062 4.10463C4.76151 4.27155 4.66021 4.42323 4.53249 4.551C4.40476 4.67878 4.2531 4.78014 4.0862 4.84931C3.9193 4.91848 3.74042 4.95409 3.55975 4.95413M4.7451 13.6326H2.37193V5.99773H4.7451V13.6326ZM14.8147 0.00109007H1.18066C0.871207 -0.00240211 0.573012 0.117105 0.351627 0.33335C0.130241 0.549596 0.00377671 0.844887 0 1.15434V14.8449C0.00364745 15.1545 0.130038 15.45 0.351416 15.6665C0.572793 15.8829 0.871053 16.0027 1.18066 15.9994H14.8147C15.1249 16.0033 15.424 15.8839 15.6462 15.6674C15.8685 15.4509 15.9957 15.1551 16 14.8449V1.15335C15.9956 0.843286 15.8683 0.547658 15.646 0.331418C15.4237 0.115178 15.1247 -0.00398749 14.8147 0.000101878" fill="#0A66C2"/>
</svg>
