<svg width="18" height="20" viewBox="0 0 18 20" fill="none" xmlns="http://www.w3.org/2000/svg">
<g clip-path="url(#clip0_9_115)">
<mask id="mask0_9_115" style="mask-type:alpha" maskUnits="userSpaceOnUse" x="0" y="1" width="18" height="18">
<rect y="1" width="18" height="18" rx="2" fill="#0C0D0E"/>
</mask>
<g mask="url(#mask0_9_115)">
<rect x="1.5" y="2.5" width="15" height="15" rx="2" fill="white"/>
<path d="M15.3353 16.339H12.6698V12.1623C12.6698 11.1663 12.6495 9.8845 11.2808 9.8845C9.891 9.8845 9.67875 10.9683 9.67875 12.0888V16.339H7.01325V7.75H9.57375V8.92075H9.60825C9.966 8.24575 10.836 7.53325 12.1358 7.53325C14.8365 7.53325 15.336 9.31075 15.336 11.6245V16.339H15.3353ZM4.00275 6.57475C3.14475 6.57475 2.4555 5.88025 2.4555 5.026C2.4555 4.1725 3.1455 3.47875 4.00275 3.47875C4.85775 3.47875 5.55075 4.1725 5.55075 5.026C5.55075 5.88025 4.857 6.57475 4.00275 6.57475ZM5.33925 16.339H2.66625V7.75H5.33925V16.339ZM16.6688 1H1.32825C0.594 1 0 1.5805 0 2.29675V17.7033C0 18.4203 0.594 19 1.32825 19H16.6665C17.4 19 18 18.4203 18 17.7033V2.29675C18 1.5805 17.4 1 16.6665 1H16.6688Z" fill="#0A66C2"/>
</g>
</g>
<defs>
<clipPath id="clip0_9_115">
<rect width="18" height="20" fill="white"/>
</clipPath>
</defs>
</svg>
