<svg width="18" height="20" viewBox="0 0 18 20" fill="none" xmlns="http://www.w3.org/2000/svg">
<rect x="2" y="2" width="14" height="14" fill="white"/>
<path d="M14.6328 14.6326H12.2621V10.92C12.2621 10.0347 12.2463 8.89503 11.0291 8.89503C9.79431 8.89503 9.60539 9.85961 9.60539 10.8556V14.6324H7.23468V6.99773H9.51056V8.04108H9.54242C9.77018 7.65166 10.0993 7.3313 10.4947 7.11412C10.8902 6.89695 11.3371 6.79109 11.7879 6.80783C14.1907 6.80783 14.6338 8.38829 14.6338 10.4444L14.6328 14.6326ZM4.55975 5.95413C4.28765 5.95418 4.02165 5.87354 3.79538 5.72241C3.56911 5.57128 3.39275 5.35645 3.28858 5.10508C3.18441 4.85372 3.15711 4.5771 3.21014 4.31023C3.26318 4.04335 3.39417 3.79819 3.58653 3.60575C3.7789 3.41332 4.02401 3.28225 4.29087 3.22911C4.55773 3.17598 4.83435 3.20318 5.08575 3.30726C5.33715 3.41134 5.55205 3.58764 5.70326 3.81385C5.85447 4.04006 5.9352 4.30604 5.93525 4.57813C5.93529 4.7588 5.89973 4.9377 5.83062 5.10463C5.76151 5.27155 5.66021 5.42323 5.53249 5.551C5.40476 5.67878 5.2531 5.78014 5.0862 5.84931C4.9193 5.91848 4.74042 5.95409 4.55975 5.95413M5.7451 14.6326H3.37193V6.99773H5.7451V14.6326ZM15.8147 1.00109H2.18066C1.87121 0.997598 1.57301 1.11711 1.35163 1.33335C1.13024 1.5496 1.00378 1.84489 1 2.15434V15.8449C1.00365 16.1545 1.13004 16.45 1.35142 16.6665C1.57279 16.8829 1.87105 17.0027 2.18066 16.9994H15.8147C16.1249 17.0033 16.424 16.8839 16.6462 16.6674C16.8685 16.4509 16.9957 16.1551 17 15.8449V2.15335C16.9956 1.84329 16.8683 1.54766 16.646 1.33142C16.4237 1.11518 16.1247 0.996013 15.8147 1.0001" fill="#0A66C2"/>
</svg>
