<svg width="18" height="20" viewBox="0 0 18 20" fill="none" xmlns="http://www.w3.org/2000/svg">
<rect x="1.5" y="2.5" width="15" height="15" fill="white"/>
<path d="M15.3369 16.3367H12.6698V12.16C12.6698 11.164 12.652 9.88191 11.2827 9.88191C9.8936 9.88191 9.68107 10.9671 9.68107 12.0875V16.3364H7.01402V7.74744H9.57438V8.92122H9.61023C9.86646 8.48311 10.2367 8.12271 10.6816 7.87839C11.1264 7.63407 11.6292 7.51498 12.1364 7.5338C14.8396 7.5338 15.338 9.31183 15.338 11.6249L15.3369 16.3367ZM4.00472 6.57339C3.69861 6.57345 3.39935 6.48273 3.1448 6.31271C2.89025 6.14269 2.69185 5.901 2.57465 5.61822C2.45746 5.33543 2.42675 5.02424 2.48641 4.724C2.54608 4.42377 2.69344 4.14796 2.90985 3.93147C3.12626 3.71498 3.40201 3.56753 3.70223 3.50775C4.00245 3.44798 4.31364 3.47858 4.59647 3.59567C4.8793 3.71276 5.12105 3.91109 5.29116 4.16558C5.46128 4.42007 5.55211 4.71929 5.55216 5.0254C5.5522 5.22865 5.51219 5.42991 5.43445 5.6177C5.3567 5.8055 5.24274 5.97614 5.09905 6.11988C4.95535 6.26362 4.78474 6.37766 4.59698 6.45547C4.40922 6.53329 4.20797 6.57336 4.00472 6.57339M5.33824 16.3367H2.66842V7.74744H5.33824V16.3367ZM16.6665 1.00123H1.32824C0.980108 0.997298 0.644638 1.13174 0.39558 1.37502C0.146522 1.6183 0.00424879 1.9505 0 2.29863V17.7005C0.00410338 18.0488 0.146293 18.3812 0.395343 18.6248C0.644393 18.8683 0.979935 19.003 1.32824 18.9993H16.6665C17.0155 19.0037 17.352 18.8693 17.602 18.6258C17.852 18.3823 17.9952 18.0495 18 17.7005V2.29752C17.995 1.9487 17.8518 1.61612 17.6017 1.37285C17.3517 1.12958 17.0153 0.995514 16.6665 1.00011" fill="#0A66C2"/>
</svg>
