<svg width="18" height="18" viewBox="0 0 18 18" fill="none" xmlns="http://www.w3.org/2000/svg">
<rect width="18" height="18" rx="1.6875" fill="#0C0D0E"/>
<path fill-rule="evenodd" clip-rule="evenodd" d="M12.6718 10.7075H13.7987V15.2153H3.65625V10.7075H4.78319V14.0883H12.6718V10.7075Z" fill="#BBBBBB"/>
<path d="M6.01136 10.3725L11.5462 11.5358L11.7789 10.4294L6.24403 9.26555L6.01136 10.3725ZM6.74378 7.72226L11.871 10.1101L12.3486 9.08473L7.22129 6.69684L6.74378 7.72226ZM8.16249 5.20682L12.5092 8.82645L13.2331 7.95717L8.8864 4.33764L8.16249 5.20682ZM10.9683 2.53125L10.0606 3.20639L13.4361 7.7449L14.3438 7.06986L10.9683 2.53125ZM5.91016 12.9614H11.5449V11.8345H5.91016V12.9614Z" fill="#F58025"/>
</svg>
