<svg width="64" height="64" viewBox="0 0 64 64" fill="none" xmlns="http://www.w3.org/2000/svg">
<rect width="64" height="64" rx="6" fill="#0C0D0E"/>
<path fill-rule="evenodd" clip-rule="evenodd" d="M45.0552 38.0712H49.0621V54.0988H13V38.0712H17.0069V50.0919H45.0552V38.0712Z" fill="#BBBBBB"/>
<path d="M21.3736 36.8801L41.053 41.0163L41.8803 37.0822L22.2009 32.9442L21.3736 36.8801ZM23.9778 27.4569L42.2077 35.9472L43.9059 32.3013L25.6756 23.811L23.9778 27.4569ZM29.0221 18.5131L44.4771 31.3829L47.051 28.2922L31.596 15.4227L29.0221 18.5131ZM38.9982 9L35.7708 11.4005L47.7726 27.5374L51 25.1373L38.9982 9ZM21.0138 46.085H41.0483V42.0781H21.0138V46.085Z" fill="#F58025"/>
</svg>
