<svg width="18" height="20" viewBox="0 0 18 20" fill="none" xmlns="http://www.w3.org/2000/svg">
<g clip-path="url(#clip0_9_117)">
<rect width="18" height="20" fill="white"/>
<rect y="1" width="18" height="18" rx="2" fill="#0C0D0E"/>
<path fill-rule="evenodd" clip-rule="evenodd" d="M13.0155 11.1763H14.1425V15.684H4V11.1763H5.12694V14.5571H13.0155V11.1763Z" fill="#BBBBBB"/>
<path d="M6.35511 10.8413L11.8899 12.0046L12.1226 10.8981L6.58778 9.7343L6.35511 10.8413ZM7.08753 8.19101L12.2147 10.5789L12.6923 9.55348L7.56504 7.16559L7.08753 8.19101ZM8.50624 5.67557L12.853 9.2952L13.5769 8.42592L9.23015 4.80639L8.50624 5.67557ZM11.312 3L10.4043 3.67514L13.7798 8.21365L14.6875 7.53861L11.312 3ZM6.25391 13.4302H11.8886V12.3032H6.25391V13.4302Z" fill="#F58025"/>
</g>
<defs>
<clipPath id="clip0_9_117">
<rect width="18" height="20" fill="white"/>
</clipPath>
</defs>
</svg>
