<svg width="18" height="20" viewBox="0 0 18 20" fill="none" xmlns="http://www.w3.org/2000/svg">
<g clip-path="url(#clip0_9_117)">
<rect y="1" width="18" height="18" rx="2" fill="#0C0D0E"/>
<path fill-rule="evenodd" clip-rule="evenodd" d="M12.4356 11.6503H13.49V15.8681H4V11.6503H5.05445V14.8136H12.4356V11.6503Z" fill="#BBBBBB"/>
<path d="M6.20365 11.3369L11.3824 12.4253L11.6001 11.3901L6.42134 10.3011L6.20365 11.3369ZM6.88894 8.85708L11.6863 11.0914L12.1332 10.1319L7.33574 7.89763L6.88894 8.85708ZM8.2164 6.50345L12.2835 9.89025L12.9608 9.07688L8.89374 5.69019L8.2164 6.50345ZM10.8417 4L9.99238 4.63171L13.1507 8.87826L14.0001 8.24665L10.8417 4ZM6.10895 13.7592H11.3812V12.7048H6.10895V13.7592Z" fill="#F58025"/>
</g>
<defs>
<clipPath id="clip0_9_117">
<rect width="18" height="20" fill="white"/>
</clipPath>
</defs>
</svg>
