<svg width="64" height="64" viewBox="0 0 64 64" fill="none" xmlns="http://www.w3.org/2000/svg">
<rect width="64" height="64" rx="6" fill="#1D9BF0"/>
<path d="M55.906 17.6458C54.1361 18.4238 52.2462 18.9538 50.2562 19.1957C52.2842 17.9738 53.8441 16.0479 54.5821 13.75C52.6801 14.8599 50.5722 15.6679 48.3283 16.1179C46.5364 14.2 43.9825 13 41.1466 13C35.7128 13 31.307 17.4058 31.307 22.8336C31.307 23.6136 31.397 24.3635 31.561 25.0815C23.3814 24.6955 16.1317 20.7677 11.2799 14.8299C10.4259 16.2739 9.94792 17.9518 9.94792 19.7797C9.94792 23.1996 11.6878 26.2054 14.3237 27.9714C12.7098 27.9194 11.1919 27.4754 9.86792 26.7394V26.8614C9.86792 31.6312 13.2538 35.6091 17.7596 36.515C16.9336 36.737 16.0617 36.857 15.1677 36.857C14.5397 36.857 13.9378 36.797 13.3358 36.685C14.5977 40.5908 18.2256 43.4387 22.5434 43.5187C19.1835 46.1566 14.9257 47.7286 10.3399 47.7286C9.55993 47.7286 8.78197 47.6826 8 47.5946C12.3778 50.3824 17.5356 52.0124 23.1134 52.0124C41.2206 52.0124 51.1102 37.021 51.1102 24.0415C51.1102 23.6236 51.1102 23.2016 51.0802 22.7816C53.0021 21.4036 54.6801 19.6617 56 17.6858L55.906 17.6458Z" fill="white"/>
</svg>
