<svg width="18" height="20" viewBox="0 0 18 20" fill="none" xmlns="http://www.w3.org/2000/svg">
<path d="M15.9736 6.30663C15.4758 6.52544 14.9442 6.67449 14.3846 6.74255C14.9549 6.39888 15.3937 5.85721 15.6012 5.21093C15.0663 5.5231 14.4734 5.75034 13.8423 5.8769C13.3384 5.33749 12.6201 5 11.8225 5C10.2942 5 9.0551 6.23914 9.0551 7.7657C9.0551 7.98506 9.08042 8.19599 9.12654 8.39792C6.82601 8.28936 4.78703 7.18466 3.42246 5.51467C3.18228 5.92077 3.04785 6.39269 3.04785 6.9068C3.04785 7.86863 3.53721 8.71403 4.27855 9.2107C3.82463 9.19608 3.39771 9.07121 3.02535 8.86422V8.89853C3.02535 10.24 3.97763 11.3588 5.24489 11.6136C5.01258 11.676 4.76734 11.7098 4.51592 11.7098C4.3393 11.7098 4.16999 11.6929 4.00069 11.6614C4.35561 12.7599 5.37594 13.5609 6.59033 13.5834C5.64537 14.3253 4.44786 14.7674 3.1581 14.7674C2.93873 14.7674 2.71993 14.7545 2.5 14.7297C3.73126 15.5138 5.18189 15.9722 6.75064 15.9722C11.8433 15.9722 14.6247 11.7559 14.6247 8.10543C14.6247 7.98788 14.6247 7.86919 14.6163 7.75107C15.1569 7.36353 15.6288 6.87361 16 6.31788L15.9736 6.30663Z" fill="#1D9BF0"/>
</svg>
