<svg width="18" height="20" viewBox="0 0 18 20" fill="none" xmlns="http://www.w3.org/2000/svg">
<path d="M15.9736 5.30663C15.4758 5.52544 14.9442 5.67449 14.3846 5.74255C14.9549 5.39888 15.3937 4.85721 15.6012 4.21093C15.0663 4.5231 14.4734 4.75034 13.8423 4.8769C13.3384 4.33749 12.6201 4 11.8225 4C10.2942 4 9.0551 5.23914 9.0551 6.7657C9.0551 6.98506 9.08042 7.19599 9.12654 7.39792C6.82601 7.28936 4.78703 6.18466 3.42246 4.51467C3.18228 4.92077 3.04785 5.39269 3.04785 5.9068C3.04785 6.86863 3.53721 7.71403 4.27855 8.2107C3.82463 8.19608 3.39771 8.07121 3.02535 7.86422V7.89853C3.02535 9.24003 3.97763 10.3588 5.24489 10.6136C5.01258 10.676 4.76734 10.7098 4.51592 10.7098C4.3393 10.7098 4.16999 10.6929 4.00069 10.6614C4.35561 11.7599 5.37594 12.5609 6.59033 12.5834C5.64537 13.3253 4.44786 13.7674 3.1581 13.7674C2.93873 13.7674 2.71993 13.7545 2.5 13.7297C3.73126 14.5138 5.18189 14.9722 6.75064 14.9722C11.8433 14.9722 14.6247 10.7559 14.6247 7.10543C14.6247 6.98788 14.6247 6.86919 14.6163 6.75107C15.1569 6.36353 15.6288 5.87361 16 5.31788L15.9736 5.30663Z" fill="#1D9BF0"/>
</svg>
