<svg width="18" height="22" viewBox="0 0 18 22" fill="none" xmlns="http://www.w3.org/2000/svg">
<rect width="18" height="18" rx="1.6875" fill="#1D9BF0"/>
<path d="M15.7236 4.96288C15.2258 5.18169 14.6942 5.33074 14.1346 5.3988C14.7049 5.05513 15.1437 4.51346 15.3512 3.86718C14.8163 4.17935 14.2234 4.40659 13.5923 4.53315C13.0884 3.99374 12.3701 3.65625 11.5725 3.65625C10.0442 3.65625 8.8051 4.89539 8.8051 6.42195C8.8051 6.64131 8.83042 6.85224 8.87654 7.05417C6.57601 6.94561 4.53703 5.84091 3.17246 4.17092C2.93228 4.57702 2.79785 5.04894 2.79785 5.56305C2.79785 6.52488 3.28721 7.37028 4.02855 7.86695C3.57463 7.85233 3.14771 7.72746 2.77535 7.52047V7.55478C2.77535 8.89628 3.72763 10.015 4.99489 10.2699C4.76258 10.3323 4.51734 10.366 4.26592 10.366C4.0893 10.366 3.91999 10.3492 3.75069 10.3177C4.10561 11.4162 5.12594 12.2171 6.34033 12.2396C5.39537 12.9816 4.19786 13.4237 2.9081 13.4237C2.68873 13.4237 2.46993 13.4107 2.25 13.386C3.48126 14.1701 4.93189 14.6285 6.50064 14.6285C11.5933 14.6285 14.3747 10.4122 14.3747 6.76168C14.3747 6.64413 14.3747 6.52544 14.3663 6.40732C14.9069 6.01978 15.3788 5.52986 15.75 4.97413L15.7236 4.96288Z" fill="white"/>
</svg>
