<svg width="18" height="20" viewBox="0 0 18 20" fill="none" xmlns="http://www.w3.org/2000/svg">
<g clip-path="url(#clip0_9_114)">
<rect y="1" width="18" height="18" rx="2" fill="#1D9BF0"/>
<path d="M15.7236 5.96288C15.2258 6.18169 14.6942 6.33074 14.1346 6.3988C14.7049 6.05513 15.1437 5.51346 15.3512 4.86718C14.8163 5.17935 14.2234 5.40659 13.5923 5.53315C13.0884 4.99374 12.3701 4.65625 11.5725 4.65625C10.0442 4.65625 8.8051 5.89539 8.8051 7.42195C8.8051 7.64131 8.83042 7.85224 8.87654 8.05417C6.57601 7.94561 4.53703 6.84091 3.17246 5.17092C2.93228 5.57702 2.79785 6.04894 2.79785 6.56305C2.79785 7.52488 3.28721 8.37028 4.02855 8.86695C3.57463 8.85233 3.14771 8.72746 2.77535 8.52047V8.55478C2.77535 9.89628 3.72763 11.015 4.99489 11.2699C4.76258 11.3323 4.51734 11.366 4.26592 11.366C4.0893 11.366 3.91999 11.3492 3.75069 11.3177C4.10561 12.4162 5.12594 13.2171 6.34033 13.2396C5.39537 13.9816 4.19786 14.4237 2.9081 14.4237C2.68873 14.4237 2.46993 14.4107 2.25 14.386C3.48126 15.1701 4.93189 15.6285 6.50064 15.6285C11.5933 15.6285 14.3747 11.4122 14.3747 7.76168C14.3747 7.64413 14.3747 7.52544 14.3663 7.40732C14.9069 7.01978 15.3788 6.52986 15.75 5.97413L15.7236 5.96288Z" fill="white"/>
</g>
<defs>
<clipPath id="clip0_9_114">
<rect width="18" height="20" fill="white"/>
</clipPath>
</defs>
</svg>
