<svg width="16" height="20" viewBox="0 0 16 20" fill="none" xmlns="http://www.w3.org/2000/svg">
<path d="M14.9726 3.85503C14.4564 4.08193 13.9051 4.23651 13.3247 4.30709C13.9162 3.95069 14.3712 3.38896 14.5864 2.71874C14.0317 3.04248 13.4169 3.27813 12.7624 3.40938C12.2398 2.84999 11.4949 2.5 10.6678 2.5C9.08291 2.5 7.79788 3.78503 7.79788 5.36813C7.79788 5.59562 7.82413 5.81436 7.87196 6.02377C5.48623 5.91119 3.37173 4.76557 1.95663 3.03373C1.70755 3.45488 1.56814 3.94427 1.56814 4.47742C1.56814 5.47488 2.07562 6.35159 2.84442 6.86665C2.37369 6.85149 1.93096 6.72199 1.54481 6.50733V6.54291C1.54481 7.93411 2.53235 9.09431 3.84655 9.35855C3.60564 9.4233 3.35132 9.45829 3.09058 9.45829C2.90742 9.45829 2.73184 9.44079 2.55627 9.40813C2.92434 10.5473 3.98246 11.378 5.24182 11.4013C4.26186 12.1707 3.02 12.6292 1.68247 12.6292C1.45498 12.6292 1.22807 12.6157 1 12.5901C2.27686 13.4032 3.78122 13.8786 5.40807 13.8786C10.6893 13.8786 13.5738 9.50612 13.5738 5.72045C13.5738 5.59854 13.5738 5.47546 13.5651 5.35296C14.1256 4.95106 14.615 4.443 15 3.86669L14.9726 3.85503Z" fill="#1D9BF0"/>
</svg>
