<svg width="512" height="512" viewBox="0 0 512 512" fill="none" xmlns="http://www.w3.org/2000/svg">
<g clip-path="url(#clip0_2_7)">
<rect width="512" height="512" rx="64" fill="#223E4B"/>
<path d="M59.2891 452H100.283V369.469H188.516V452H229.51V256.124H188.516V335.669H100.283V256.124H59.2891V452ZM276.547 287.752C288.492 287.752 297.723 278.386 297.723 267.119C297.723 255.853 288.492 246.486 276.547 246.486C264.602 246.486 255.371 255.853 255.371 267.119C255.371 278.386 264.602 287.752 276.547 287.752ZM256.729 452H296.366V306.484H256.729V452Z" fill="white"/>
<path d="M340.824 454.308C353.041 454.308 362.814 444.534 362.814 432.317C362.814 419.965 353.041 410.327 340.824 410.327C328.471 410.327 318.834 419.965 318.834 432.317C318.834 444.534 328.471 454.308 340.824 454.308Z" fill="#EC6F3D"/>
</g>
<defs>
<clipPath id="clip0_2_7">
<rect width="512" height="512" rx="64" fill="white"/>
</clipPath>
</defs>
</svg>
