<svg width="16" height="20" viewBox="0 0 16 20" fill="none" xmlns="http://www.w3.org/2000/svg">
<style>
  @supports (color: color(display-p3 1 1 1)) {
    rect {
      fill: color(display-p3 0.05 0.249 0.32);
    }
    .primary-color {
      fill: color(display-p3 1 0.556 0.355);
    }
  }
</style>
<rect width="16" height="16" rx="2" fill="#004152"/>
<path fill="white" d="M3.03213 13V5.72727H4.56977V8.72798H7.69122V5.72727H9.22531V13H7.69122V9.99574H4.56977V13H3.03213Z" />
<path fill="#FF8652" class="primary-color" d="M11.4489 13.0923C11.2145 13.0923 11.0133 13.0095 10.8452 12.8438C10.6795 12.6757 10.5966 12.4744 10.5966 12.2401C10.5966 12.008 10.6795 11.8092 10.8452 11.6435C11.0133 11.4777 11.2145 11.3949 11.4489 11.3949C11.6762 11.3949 11.875 11.4777 12.0455 11.6435C12.2159 11.8092 12.3012 12.008 12.3012 12.2401C12.3012 12.3963 12.2609 12.5395 12.1804 12.6697C12.1023 12.7976 11.9993 12.9006 11.8715 12.9787C11.7436 13.0545 11.6028 13.0923 11.4489 13.0923Z" />
</svg>
