<svg width="18" height="22" viewBox="0 0 18 22" fill="none" xmlns="http://www.w3.org/2000/svg">
<g clip-path="url(#clip0_7_77)">
<rect width="18" height="18" rx="2.25" fill="#223E4B"/>
<path d="M2.08438 15.5742H3.52558V12.6727H6.6275V15.5742H8.0687V8.68795H6.6275V11.4845H3.52558V8.68795H2.08438V15.5742ZM9.72236 9.79987C10.1423 9.79987 10.4668 9.47059 10.4668 9.0745C10.4668 8.67841 10.1423 8.34913 9.72236 8.34913C9.30241 8.34913 8.9779 8.67841 8.9779 9.0745C8.9779 9.47059 9.30241 9.79987 9.72236 9.79987ZM9.02562 15.5742H10.4191V10.4584H9.02562V15.5742Z" fill="white"/>
<path d="M11.9821 15.6553C12.4116 15.6553 12.7552 15.3117 12.7552 14.8823C12.7552 14.448 12.4116 14.1092 11.9821 14.1092C11.5478 14.1092 11.209 14.448 11.209 14.8823C11.209 15.3117 11.5478 15.6553 11.9821 15.6553Z" fill="#EC6F3D"/>
</g>
<defs>
<clipPath id="clip0_7_77">
<rect width="18" height="18" rx="2.25" fill="white"/>
</clipPath>
</defs>
</svg>
