<svg xmlns="http://www.w3.org/2000/svg">
  <symbol id="logo" width="32" height="32" viewBox="0 0 32 32">
    <path style="fill: var(--fill, #0057ff);" d="M10.0974 8C10.9168 8 11.6614 8.06893 12.3383 8.21599C13.0117 8.36534 13.5871 8.59512 14.0715 8.9168C14.55 9.23848 14.927 9.66357 15.1919 10.2035C15.4545 10.7435 15.5887 11.4099 15.5887 12.1911C15.5887 13.0412 15.3903 13.7535 14.997 14.328C14.6025 14.9024 14.0201 15.362 13.244 15.7296C14.3014 16.0283 15.0834 16.5568 15.6039 17.3036C16.1268 18.0618 16.38 18.9694 16.38 20.0149C16.38 20.8765 16.2283 21.6118 15.9015 22.2322C15.5747 22.8641 15.1195 23.3811 14.5477 23.7832C13.9874 24.183 13.3222 24.4725 12.5986 24.6644C11.8866 24.8539 11.1373 24.9562 10.3694 24.9562H2V8.00804H10.0974V8ZM21.7709 21.9726C22.2845 22.4643 23.0233 22.7113 23.9815 22.7113C24.67 22.7113 25.2653 22.5413 25.7671 22.1978C26.262 21.8646 26.5608 21.4969 26.6775 21.1178H29.698C29.2276 22.5884 28.4748 23.6453 27.4805 24.2772C26.4884 24.9206 25.2816 25.2308 23.8857 25.2308C22.9089 25.2308 22.037 25.0814 21.2341 24.7712C20.4486 24.461 19.7868 24.0245 19.2266 23.4615C18.6851 22.8986 18.2661 22.2207 17.9696 21.428C17.6744 20.6353 17.5343 19.7621 17.5343 18.8201C17.5343 17.8975 17.6919 17.0508 18.0047 16.2581C18.3198 15.4539 18.7563 14.7875 19.3118 14.2016C19.8895 13.6157 20.5525 13.1734 21.3379 12.8299C22.1234 12.4863 22.9719 12.3324 23.9289 12.3324C24.991 12.3324 25.9014 12.5208 26.7067 12.9333C27.4886 13.3239 28.1305 13.8753 28.6441 14.5417C29.1576 15.2149 29.5194 15.9893 29.7412 16.8624C29.9629 17.724 30.0329 18.6317 29.9863 19.5967H21.0111C21.0111 20.5618 21.3379 21.4717 21.8398 21.9691L21.7464 22.0036L21.7709 21.9726ZM9.81967 22.03C10.1896 22.03 10.5433 21.9955 10.8771 21.9232C11.2155 21.8542 11.5167 21.7336 11.7676 21.5785C12.0127 21.4234 12.2228 21.2017 12.3745 20.9087C12.5262 20.633 12.5962 20.2539 12.5962 19.8058C12.5962 18.9441 12.3395 18.3238 11.8493 17.9446C11.3474 17.577 10.6938 17.3932 9.87686 17.3932H5.78145V22.0461H9.81967V22.0116V22.03ZM25.7006 15.5389C25.2898 15.0966 24.6035 14.8588 23.7667 14.8588C23.2205 14.8588 22.7688 14.9438 22.4058 15.1322C22.0534 15.3045 21.7639 15.5343 21.5422 15.81C21.3204 16.0858 21.1722 16.3615 21.0847 16.6717C20.9971 16.9704 20.9446 17.2461 20.9271 17.4874H26.4849C26.4032 16.6257 26.0998 15.9938 25.6913 15.5458V15.5573L25.7006 15.5389ZM9.60959 14.8323C10.2795 14.8323 10.8351 14.6784 11.2727 14.359C11.7092 14.0488 11.9193 13.5318 11.9193 12.8218C11.9193 12.4266 11.8376 12.1038 11.7092 11.8499C11.5575 11.5971 11.3591 11.4018 11.1257 11.2616C10.8806 11.1192 10.6005 11.0204 10.2854 10.9664C9.97023 10.9055 9.63177 10.8814 9.30498 10.8814H5.76978V14.8335H9.60959V14.8323ZM20.228 9.13623H27.1934V10.8067H20.228V9.12245V9.13394V9.13623Z" />
  </symbol>
</svg>
