<svg xmlns="http://www.w3.org/2000/svg">
  <symbol id="logo" width="32" height="32" viewBox="0 0 32 32">
    <path style="fill: var(--fill, black);"  fill-rule="evenodd" clip-rule="evenodd" d="M15.2676 2.22087C15.7114 1.92638 16.2886 1.92638 16.7324 2.22087L29.4076 10.6301C29.7776 10.8755 30 11.2901 30 11.7341V20.2589C30 20.7029 29.7776 21.1174 29.4076 21.3629L16.7325 29.7721C16.2886 30.0666 15.7114 30.0666 15.2676 29.7721L2.59244 21.3629C2.22243 21.1174 2 20.7029 2 20.2589V11.7341C2 11.2901 2.22243 10.8755 2.59244 10.6301L15.2676 2.22087ZM4.64977 14.2032V17.7712L7.32029 15.9751L4.64977 14.2032ZM9.71037 17.5609L5.71006 20.2514L14.6751 26.1992V20.8551L9.71037 17.5609ZM17.3249 20.8551V26.1992L26.2899 20.2514L22.2896 17.5609L17.3249 20.8551ZM24.6797 15.9751L27.3502 17.7712V14.2032L24.6797 15.9751ZM26.2787 11.7341L22.2996 14.3743L17.3249 11.0285V5.79382L26.2787 11.7341ZM14.6751 5.79382V11.0285L9.7004 14.3743L5.72132 11.7341L14.6751 5.79382ZM16 13.3307L12.0905 15.9601L16 18.5542L19.9095 15.9601L16 13.3307Z" />
  </symbol>
</svg>
