<svg xmlns="http://www.w3.org/2000/svg">
  <symbol id="logo" width="32" height="32" viewBox="0 0 32 32">
    <rect width="28" height="28" x="2" y="2" style="fill: var(--fill2, white);" />
    <path style="fill: var(--fill1, var(--fill, #0a66c2));" d="M27.2655 27.2652H22.5241V19.84C22.5241 18.0694 22.4925 15.7901 20.0581 15.7901C17.5886 15.7901 17.2108 17.7192 17.2108 19.7111V27.2647H12.4694V11.9955H17.0211V14.0822H17.0848C17.5404 13.3033 18.1986 12.6626 18.9895 12.2282C19.7803 11.7939 20.6742 11.5822 21.5758 11.6157C26.3815 11.6157 27.2675 14.7766 27.2675 18.8888L27.2655 27.2652ZM7.1195 9.90825C6.57531 9.90835 6.04329 9.74708 5.59076 9.44482C5.13822 9.14256 4.7855 8.7129 4.57716 8.21017C4.36882 7.70743 4.31421 7.15421 4.42029 6.62045C4.52636 6.0867 4.78833 5.59638 5.17307 5.21151C5.5578 4.82664 6.04803 4.56449 6.58174 4.45823C7.11546 4.35197 7.66869 4.40636 8.1715 4.61452C8.67431 4.82268 9.10409 5.17527 9.40651 5.6277C9.70893 6.08012 9.87041 6.61207 9.87051 7.15627C9.87057 7.5176 9.79945 7.8754 9.66124 8.20925C9.52302 8.5431 9.32043 8.84646 9.06497 9.10201C8.80952 9.35756 8.50621 9.56028 8.17241 9.69862C7.8386 9.83695 7.48083 9.90819 7.1195 9.90825ZM9.4902 27.2652H4.74386V11.9955H9.4902V27.2652ZM29.6293 0.00218014H2.36132C1.74241 -0.00480422 1.14602 0.23421 0.703253 0.666701C0.260483 1.09919 0.00755341 1.68977 0 2.30867V29.6898C0.00729489 30.309 0.260076 30.9 0.702831 31.3329C1.14559 31.7658 1.74211 32.0053 2.36132 31.9987H29.6293C30.2497 32.0065 30.8479 31.7677 31.2924 31.3348C31.7369 30.9019 31.9914 30.3102 32 29.6898V2.3067C31.9912 1.68657 31.7365 1.09532 31.292 0.662837C30.8475 0.230356 30.2494 -0.00797497 29.6293 0.000203756" />
  </symbol>
</svg>