<svg xmlns="http://www.w3.org/2000/svg">
  <symbol id="logo" width="32" height="32" viewBox="0 0 32 32">
    <path style="fill: var(--fill, #1d9bf0);" d="M29.9452 7.71005C28.9127 8.16387 27.8103 8.47302 26.6495 8.61418C27.8324 7.90138 28.7424 6.77793 29.1729 5.43748C28.0634 6.08495 26.8338 6.55627 25.5249 6.81876C24.4796 5.69997 22.9898 5 21.3355 5C18.1658 5 15.5958 7.57006 15.5958 10.7363C15.5958 11.1912 15.6483 11.6287 15.7439 12.0475C10.9725 11.8224 6.74347 9.53114 3.91325 6.06746C3.41511 6.90975 3.13629 7.88855 3.13629 8.95484C3.13629 10.9498 4.15124 12.7032 5.68885 13.7333C4.74739 13.703 3.86192 13.444 3.08962 13.0147V13.0858C3.08962 15.8682 5.06471 18.1886 7.6931 18.7171C7.21128 18.8466 6.70264 18.9166 6.18116 18.9166C5.81484 18.9166 5.46369 18.8816 5.11254 18.8163C5.84867 21.0947 7.96492 22.7559 10.4836 22.8026C8.52373 24.3414 6.04 25.2583 3.36494 25.2583C2.90996 25.2583 2.45615 25.2315 2 25.1802C4.55373 26.8064 7.56244 27.7572 10.8161 27.7572C21.3787 27.7572 27.1476 19.0122 27.1476 11.4409C27.1476 11.1971 27.1476 10.9509 27.1301 10.7059C28.2512 9.90213 29.23 8.88601 30 7.73339L29.9452 7.71005Z" />
  </symbol>
</svg>
